<svg xmlns="http://www.w3.org/2000/svg" viewBox="0 0 20 18"><path fill="#FFF" fill-rule="evenodd" d="M10.2 0c2.47 0 4.65.82 6.25 2.11l.23.19-2.81 2.6a5.8 5.8 0 0 0-9 2.2l-.07.2a4.52 4.52 0 0 0-.09 3.18l.09.22-.14.1h.14a5.77 5.77 0 0 0 5.15 3.7h.25c1.18 0 2.2-.34 3.02-.78l.22-.12a4.12 4.12 0 0 0 1.94-2.7H10.2V7.4h9.07c.1.5.21 1.2.21 1.8 0 2.7-.97 5.1-2.8 6.7h-.13l-.11.1a9.92 9.92 0 0 1-6.24 2c-3.78 0-7.13-2-8.64-5A7.47 7.47 0 0 1 .48 9c0-1.3.37-2.58.93-3.72L1.56 5l.13-.25C3.26 1.89 6.53 0 10.2 0z"/></svg>