<?xml version="1.0" encoding="UTF-8"?>
<svg width="40px" height="40px" viewBox="0 0 40 40" version="1.1" xmlns="http://www.w3.org/2000/svg" xmlns:xlink="http://www.w3.org/1999/xlink">
    <!-- Generator: Sketch 61 (89581) - https://sketch.com -->
    <title>user icon</title>
    <desc>Created with Sketch.</desc>
    <g id="user-icon" stroke="#ffffff" stroke-width="0.1" fill="#ffffff">
        <g id="user" transform="translate(10.000000, 10.000000)" fill="#ffffff">
            <path d="M6.74633789,10.7125107 C5.52601225,9.60974653 4.75,7.90178359 4.75,6 C4.75,2.70996624 7.07245386,0 10,0 C12.9269304,0 15.25,2.71031026 15.25,6 C15.25,7.90182986 14.4735819,9.61001906 13.2529297,10.712831 L13.2529297,12.9256531 L17.3685754,14.0369489 C18.7979621,14.5532367 19.75,15.9172751 19.75,17.4454072 L19.75,19.25 C19.75,19.6642136 19.4142136,20 19,20 L1,20 C0.585786438,20 0.25,19.6642136 0.25,19.25 L0.25,17.4454072 C0.25,15.9172751 1.20203789,14.5532367 2.69106094,14.0181791 L6.74633789,12.9253559 L6.74633789,10.7125107 L6.74633789,10.7125107 Z M8.24633789,11.6590758 L8.24633789,13.5 C8.24633789,13.8390558 8.01886445,14.135944 7.69148748,14.2241662 L3.14099646,15.4477417 C2.3075245,15.748788 1.75,16.5475847 1.75,17.4454072 L1.75,18.5 L18.25,18.5 L18.25,17.4454072 C18.25,16.5475847 17.6924755,15.748788 16.9186688,15.4665193 L12.307809,14.224174 C11.9804178,14.135962 11.7529297,13.8390669 11.7529297,13.5 L11.7529297,11.6592373 C11.2061134,11.8797765 10.6164497,12 10,12 C9.38323648,12 8.7933296,11.8797199 8.24633789,11.6590758 L8.24633789,11.6590758 Z M13.75,6 C13.75,3.49181886 12.042766,1.5 10,1.5 C7.95667137,1.5 6.25,3.49143753 6.25,6 C6.25,8.50856247 7.95667137,10.5 10,10.5 C12.042766,10.5 13.75,8.50818114 13.75,6 Z" id="shape"></path>
        </g>
    </g>
</svg>